<svg xmlns="http://www.w3.org/2000/svg" width="3532.3" height="973.589" viewBox="0 0 3532.3 973.589">
  <g id="Group_66" data-name="Group 66" transform="translate(-5816 -8072)">
    <path id="Path_301" data-name="Path 301" d="M559.3-1565.6c-9,2.9-17.7,10.8-21.8,19.9-1.3,2.9-19.1,72-39.5,153.7-20.5,81.7-37.6,148.9-38,149.3-.4.5-20.3-10.3-44.1-24.1-23.9-13.7-74.9-43.1-113.4-65.2-38.5-22.2-89.1-51.3-112.5-64.9-23.4-13.5-46.5-26.6-51.5-29.2-22.6-11.8-46.1-16.8-65.4-14-14.7,2.2-31.8,8.9-46,18.1l-6.4,4.1.7,25.7c.3,14.1.9,31.1,1.1,37.7.3,6.6.8,20.9,1.1,31.7l.6,19.7,4.5-3a120.025,120.025,0,0,1,13.8-7.5c30.6-14.5,61.6-12.9,96,5,5.5,2.8,41.5,23.3,80,45.5,72.1,41.6,86.1,49.7,222.5,128.1,44.3,25.4,82.6,47.5,85.2,49.1l4.7,2.8,2.8-12.2c1.6-6.7,20.9-89,42.9-182.9,21.9-93.8,40-170.5,40.2-170.3s7.4,30.3,16,66.9l15.8,66.7,26.4,15.3c14.6,8.4,47.9,27.5,74,42.6,63.1,36.3,98.9,56.9,229.5,132.1,60.5,34.9,114.7,65.8,120.4,68.6,25.2,12.6,49.1,17,69.9,12.7,10.7-2.2,26.5-8.6,37.5-15.3l9.2-5.6v-8.5c0-4.7-.4-20-.8-34s-1-35.9-1.4-48.5c-.3-12.7-.7-23.2-.9-23.4s-2.1.8-4.2,2.2c-5.8,3.8-16.8,9.1-24.9,12-31.8,11.4-60.7,5.9-105.3-20.3-6.3-3.7-52-30-101.5-58.5s-121.3-69.8-159.5-91.8-69.6-40-69.7-40.1c-.3-.3-23.3-86.9-23.3-88a4.753,4.753,0,0,1,1.8-2.8c2.6-2.4,59.6-19.6,62.7-19,3.8.7,8.1,5.5,9.3,10.4a22.527,22.527,0,0,0,2.6,6.3c1.4,1.9,1.4,1.9,6.3-.1l4.8-2v-44.9l-3.2-6.8c-3.8-7.9-11.4-16.3-18.1-20-9.5-5.2-13.9-5.7-47.8-5.7-29.6,0-31.3-.1-31.9-1.9-1-3.3-9.5-10.9-15.3-13.8l-5.7-2.8-63-.2C576.6-1566.9,562.6-1566.6,559.3-1565.6Z" transform="translate(5795.3 9638.759)" fill="#fff"/>
    <path id="Path_304" data-name="Path 304" d="M2268-1385c-88,7.3-155.2,46.1-184.6,106.5-19.1,39.4-22.5,91.5-8.8,132.9,3.6,10.7,12.9,28.8,20,38.8,7.1,9.9,24.1,27.8,34.4,36.1,18.6,15,40.2,27.2,86.3,48.6,34.1,15.9,75.5,36.8,83.4,42.3,8.7,6,20.6,18.3,25.1,26,7,11.8,11,29.7,9.7,43.3-1.7,18.5-7.6,30.8-21.4,44.5-14,13.9-30.5,22.5-52.8,27.5-9.1,2.1-13.4,2.5-27.6,2.5-55.8,0-121-16.9-167.4-43.4-6.1-3.5-6.3-3.5-6.3-1.3-.1,5.6,10.2,114.5,11,116.4.7,1.6,3.2,2.9,10.2,5.1,37.3,11.9,105.3,19.2,166.3,17.9,32.8-.7,52-3.7,77.3-11.9,74.1-23.9,122.4-78.4,132.8-149.8,2.2-15.6,1.5-45.2-1.5-59.1-8.7-40.4-31.7-74.9-67.6-101.5-17-12.5-26.7-17.5-98.5-51.1-55.5-25.9-63.9-30.9-79.7-47.7-16-17-23.1-35-22-55.6,2.1-38.4,32.5-65.3,81.9-72.6,19.8-2.9,54.3-.9,77.7,4.6,27.6,6.5,46.6,15.4,76.4,35.7l16.7,11.4v-112.9l-12.2-5c-32.7-13.4-71.4-23.4-105.3-27.2C2308.2-1385.4,2280-1386,2268-1385Z" transform="translate(5795.3 9638.759)" fill="#fff"/>
    <path id="Path_305" data-name="Path 305" d="M2674-1377.5c0,.3,4.5,11.7,10,25.5s10,25.7,10,26.5-48,127.6-106.6,281.7C2528.8-889.6,2480-761.4,2479-758.7l-1.8,4.7,59.5-.2,59.5-.3,18.8-54,18.7-54,112.1-.3c106-.2,112.2-.1,113,1.5.6,1,9.2,25.5,19.3,54.6l18.3,52.7,112.4-.2,112.5-.3,13.1-37.5c7.3-20.6,15.8-45,19-54.3l5.8-16.7h224.6l3.6,10.2c2,5.7,10.5,30.1,18.9,54.3l15.2,44,65.8.3c36.1.1,65.7-.1,65.7-.5,0-.5-50.1-140.8-111.3-311.8l-111.3-311-65.7-.3c-36.1-.1-65.7-.1-65.7.1,0,.1,4.7,11.9,10.4,26.2,10,25,10.3,26,9.1,29.5-4.4,12.3-201.8,530.6-202.4,531.2-.3.4-47.9-131.5-105.7-293l-105-293.7-65.7-.3C2703.6-1377.9,2674-1377.8,2674-1377.5Zm116,309.3,38.5,120.7-81.9.3c-45.1.1-82.1,0-82.3-.2-.7-.6,86-242.6,86.7-242C2751.3-1189.1,2768.8-1134.6,2790-1068.2Zm525.3.2,38.5,120.5-82.1.3c-45.1.1-82.2.1-82.3-.1-.2-.1,19.1-54.8,42.9-121.5,23.7-66.6,43.5-120.8,43.8-120.4C3276.5-1188.8,3294.1-1134.3,3315.3-1068Z" transform="translate(5795.3 9638.759)" fill="#fff"/>
    <path id="Path_306" data-name="Path 306" d="M1493.7-1376.3c-1,.9-.6,388,.4,408.3q9.45,197.55,183.2,223.9c22.6,3.5,39.4,4.4,68.7,3.8,31.5-.6,45.8-2.4,70.4-8.7,30.3-7.7,54.4-19.1,77.6-36.6,49.3-37.2,78.7-96.6,86-173.9.6-7.1,1-82.5,1-214.3V-1377H1872.1l-.4,209.7c-.3,188.8-.5,210.7-2,219-5.5,30.8-14.6,52.7-29.4,70.3-17.5,20.8-41,33.1-72.8,38.1-11.7,1.9-39.9,1.6-51.5-.5-60.6-10.9-95-57.8-101-137.6-.6-8.4-1-86.4-1-206.3V-1377h-59.8C1521.3-1377,1494-1376.7,1493.7-1376.3Z" transform="translate(5795.3 9638.759)" fill="#fff"/>
    <path id="Path_307" data-name="Path 307" d="M69-1289.6c-13.2,3-33.2,11.5-43.9,18.9l-4.4,3,.6,23.1c.4,12.7,1,34.1,1.3,47.6s.8,25.4.9,26.5a90.518,90.518,0,0,1,.4,9.7l.1,7.7,7.1-4.4a133.649,133.649,0,0,1,32.3-13.7c12.4-3.4,30.8-3.1,43.9.5,21,5.8,25.2,7.9,95.7,48.5,31.1,17.9,84.4,48.6,118.5,68.2s88,50.7,119.8,69,58.2,32.9,58.7,32.4c1.4-1.6,24.2-101.6,23.3-102.4-.4-.4-9.8-5.9-20.8-12.2-23-13.3-257.8-148.5-316.4-182.2-44.3-25.5-50.4-28.8-64.6-34.1C102.9-1290.5,83.3-1292.7,69-1289.6Z" transform="translate(5795.3 9638.759)" fill="#fff"/>
    <path id="Path_308" data-name="Path 308" d="M658-1273.8c.5,1.8,7.4,31.6,15.5,66.3,8,34.6,15,63.7,15.4,64.5s16.5,10.5,35.7,21.6c161.5,92.8,212.2,122.1,282.4,162.5,88.8,51.1,94.2,54.1,108,59.2,27.6,10.3,48.9,9.9,75.3-1.4a174.83,174.83,0,0,0,24-13.3c1.6-1.3,1.7-3.2.8-32.7-.6-17.3-1.3-42.9-1.7-56.9s-.7-25.6-.8-25.7a28.031,28.031,0,0,0-4.6,2.9c-6.8,4.6-21.5,11.4-30,13.7a142.561,142.561,0,0,1-16.7,3.1c-20.3,2.5-46.4-4.1-69.4-17.3-4.1-2.4-19.1-11.1-33.4-19.4-14.3-8.2-72.1-41.6-128.5-74-56.4-32.5-140.1-80.7-186.1-107.1-46-26.5-84.3-48.4-85.2-48.8C657.3-1277.1,657.2-1276.7,658-1273.8Z" transform="translate(5795.3 9638.759)" fill="#fff"/>
    <path id="Path_309" data-name="Path 309" d="M77.5-1141.4c-17.3,2.5-32.6,8.3-49.7,18.7l-6.8,4.2v8.5c0,13.6,2.9,105.2,3.4,105.7a78.2,78.2,0,0,0,7.1-3.9,154.792,154.792,0,0,1,32-13.4c5.3-1.4,10.3-1.9,21-1.9,12.1,0,15.3.4,23.8,2.8,15,4.1,28.5,10.2,49.2,22,10.5,6,38.4,22.1,62,35.7,23.7,13.6,72.9,42,109.5,63s82.8,47.7,102.7,59.1c19.9,11.5,36.6,20.9,37,20.9,1.3,0,24.7-102,23.6-103.1-.5-.5-23.8-14.1-51.9-30.2-28-16.2-106-61.1-173.4-99.9s-125.2-71.9-128.5-73.5a184.66,184.66,0,0,0-33.8-12.3C96.3-1140.9,82.8-1142.1,77.5-1141.4Z" transform="translate(5795.3 9638.759)" fill="#fff"/>
    <path id="Path_310" data-name="Path 310" d="M698.5-1101.3c.3,1.6,7.4,32,15.8,67.6l15.3,64.8L764-949.1c65.1,37.3,201.6,115.8,262,150.7,33.3,19.2,64.6,37,69.5,39.5,24.2,12.6,46.8,18.2,65.1,15.9,15.1-1.9,34.4-9.3,49.2-18.9l6.4-4.2-.6-18.2c-.4-10-.8-23.6-1.1-30.2s-.8-23.9-1.1-38.5c-.4-14.6-.8-26.7-1-26.8-.1-.2-2.3,1-4.8,2.7-6.8,4.7-19.9,10.7-30.1,13.8-8.2,2.4-10.5,2.7-25,2.7-13.5,0-17.3-.3-24.3-2.2-13.3-3.6-30.8-11.1-41.1-17.7-2-1.2-55.8-32.3-119.6-69S817.2-1036,775.3-1060.1c-41.9-24.2-76.5-43.9-76.8-43.9C698.1-1104,698.1-1102.8,698.5-1101.3Z" transform="translate(5795.3 9638.759)" fill="#fff"/>
    <path id="Path_311" data-name="Path 311" d="M72.9-991c-13.3,2.3-29.4,8.5-42.7,16.5l-8.7,5.2v15.9c0,17.4,1.6,80,2,82.4a75.225,75.225,0,0,1,.4,9.2l.1,7.6,7.5-4.5a113.235,113.235,0,0,1,45.1-15.5c11.4-1.5,24.2.4,40.1,5.7,15.7,5.3,23,9,65.8,33.7C204-822.4,242.9-800,269-785s59,33.9,73,42c68.6,39.6,93.9,54,95.2,54.5,1.1.5,3.6-8.6,11.8-43.7,5.7-24.4,11.1-47.5,12-51.5l1.7-7.2-38.6-22.3c-21.2-12.2-56.1-32.3-77.6-44.6-21.4-12.3-58.6-33.7-82.5-47.5-23.9-13.7-59.9-34.5-80-46-20.1-11.6-40.9-23.3-46.4-26C114.3-988.8,90.2-993.9,72.9-991Z" transform="translate(5795.3 9638.759)" fill="#fff"/>
    <path id="Path_312" data-name="Path 312" d="M743.5-908.8c2.9,12.3,9.9,42.3,15.5,66.8,5.7,24.5,10.8,45,11.4,45.7.6.6,17.1,10.3,36.6,21.6,19.5,11.2,56.9,32.7,83,47.7,53.7,30.9,101.1,58.1,159.7,91.8,45.3,26.1,55.9,31.7,69,36,15,5.1,24.2,6.5,36.7,5.9,17.1-.8,35.3-7.1,53.4-18.3l7.3-4.6-.6-15.1c-.3-8.4-.7-21.1-1-28.2-.3-7.2-.8-25.8-1.1-41.5-.4-15.7-.8-28.7-1-28.9-.1-.2-3.6,1.7-7.6,4.2-8.3,5.2-19.3,9.8-30.6,12.9s-32.3,3.1-44.5,0c-11.7-2.9-27.4-9.1-36.7-14.5-62.9-36.4-352.1-202.8-353.2-203.2C738.6-931,739.4-926.2,743.5-908.8Z" transform="translate(5795.3 9638.759)" fill="#fff"/>
  </g>
</svg>
